# xmcd CD database file
#
# Track frame offsets:
#	150
#	24097
#	41372
#	59615
#	75915
#	97682
#	119985
#	136650
#	155835
#	181377
#	196330
#	214195
#	228222
#	245285
#	264380
#	283417
#	299700
#
# Disc length: 4225 seconds
#
# Revision: 0
# Processed by: cddbd v1.5.1PL2 Copyright (c) Steve Scherf et al.
# Submitted via: CDex 1.51
#
DISCID=f1107f11
DTITLE=Various Artist - promo radio Sony Music no.0020
DYEAR=1990
DGENRE=Pop Rock
TTITLE0=George Michael  -  freedom (edit)
TTITLE1=Paul Young  -  heaven can wait
TTITLE2=Cheap Trick  -  whenever would i be
TTITLE3=Billy Joel  -  and so it goes
TTITLE4=Living Colour  -  type (radio edit)
TTITLE5=Rush  -  the spirit of radio
TTITLE6=Biscuit  -  biscuit's in the house
TTITLE7=Ana  -  everytime we say goodbye
TTITLE8=Teena Marie  -  here's looking at you
TTITLE9=HDV  -  secret
TTITLE10=Sylvie Boucher  -  animale
TTITLE11=Claude De Chevigny  -  Maria Ouellette
TTITLE12=Hand of fate  -  good life
TTITLE13=Judas Priest  -  a touch of evil
TTITLE14=Rodney Crowell  -  now that we're alone
TTITLE15=Ricky Van Shelton  -  life's little ups and downs
TTITLE16=Tim Ryan  -  breakin' all the way
EXTD=YEAR: 1990
EXTT0=
EXTT1=
EXTT2=
EXTT3=
EXTT4=
EXTT5=
EXTT6=
EXTT7=
EXTT8=
EXTT9=
EXTT10=
EXTT11=
EXTT12=
EXTT13=
EXTT14=
EXTT15=
EXTT16=
PLAYORDER=
